<?xml version="1.0" standalone="no"?>
<!DOCTYPE svg PUBLIC "-//W3C//DTD SVG 1.1//EN" "http://www.w3.org/Graphics/SVG/1.1/DTD/svg11.dtd">
<svg width="7.636667in" height="4.153333in" viewBox="0 0 2291 1246" xmlns="http://www.w3.org/2000/svg" version="1.1">
<path id="00011-41_a_000" fill="none" stroke="black" stroke-width="1" d="M 147.73 127.85 L 132.00 131.00 L 92.00 131.00 L 72.05 141.97 L 72.22 197.88 L 92.00 187.00 L 172.00 187.00 L 192.00 186.00 L 212.00 206.00 L 232.00 186.00 L 272.00 186.00 L 292.00 185.00 L 372.00 185.00 L 392.00 165.00 L 412.00 184.00 L 492.00 184.00 L 512.00 183.00 L 552.00 183.00 L 572.00 203.00 L 612.00 203.00 L 632.00 182.00 L 672.00 182.00 L 692.00 202.00 L 712.00 202.00 L 732.00 181.00 L 832.00 181.00 L 852.00 180.00 L 892.00 180.00 L 912.00 160.00 L 932.00 180.00 L 952.00 179.00 L 1052.00 179.00 L 1072.00 178.00 L 1092.00 198.00 L 1112.00 178.00 L 1152.00 178.00 L 1172.00 177.00 L 1212.00 177.00 L 1232.00 197.00 L 1252.00 197.00 L 1272.00 217.00 L 1292.00 216.00 L 1352.00 216.00 L 1372.00 196.00 L 1392.00 215.00 L 1412.00 215.00 L 1432.00 195.00 L 1452.00 195.00 L 1472.00 215.00 L 1492.00 214.00 L 1532.00 214.00 L 1552.00 194.00 L 1572.00 214.00 L 1592.00 214.00 L 1612.00 213.00 L 1632.00 193.00 L 1652.00 213.00 L 1672.00 213.00 L 1692.00 193.00 L 1712.00 212.00 L 1732.00 192.00 L 1752.00 212.00 L 1772.00 192.00 L 1792.00 212.00 L 1812.00 192.00 L 1832.00 211.00 L 1892.00 211.00 L 1912.00 191.00 L 1932.00 190.00 L 1933.41 190.00 L 1933.00 148.00 L 258.01 129.10 L 252.00 130.00 L 192.00 130.00 L 172.00 131.00 L 156.78 127.96 L 147.73 127.85 Z" />
<path id="00011-41_a_001" fill="none" stroke="black" stroke-width="1" d="M 912.00 160.00 L 892.00 180.00 L 852.00 180.00 L 832.00 181.00 L 732.00 181.00 L 712.00 202.00 L 692.00 202.00 L 672.00 182.00 L 632.00 182.00 L 612.00 203.00 L 572.00 203.00 L 552.00 183.00 L 512.00 183.00 L 492.00 184.00 L 412.00 184.00 L 392.00 165.00 L 372.00 185.00 L 292.00 185.00 L 272.00 186.00 L 232.00 186.00 L 212.00 206.00 L 192.00 186.00 L 172.00 187.00 L 92.00 187.00 L 72.22 197.88 L 72.44 269.20 L 92.00 278.00 L 132.00 278.00 L 152.00 277.00 L 212.00 277.00 L 232.00 276.00 L 272.00 276.00 L 292.00 255.00 L 312.00 275.00 L 332.00 255.00 L 352.00 275.00 L 372.00 254.00 L 392.00 274.00 L 412.00 274.00 L 432.00 254.00 L 452.00 273.00 L 492.00 273.00 L 512.00 252.00 L 532.00 252.00 L 552.00 272.00 L 572.00 272.00 L 592.00 251.00 L 612.00 271.00 L 652.00 271.00 L 672.00 270.00 L 712.00 270.00 L 732.00 269.00 L 792.00 269.00 L 812.00 268.00 L 872.00 268.00 L 892.00 267.00 L 932.00 267.00 L 952.00 266.00 L 972.00 266.00 L 992.00 246.00 L 1012.00 266.00 L 1032.00 265.00 L 1072.00 265.00 L 1092.00 264.00 L 1152.00 264.00 L 1172.00 263.00 L 1232.00 263.00 L 1252.00 262.00 L 1292.00 262.00 L 1312.00 261.00 L 1352.00 261.00 L 1372.00 241.00 L 1392.00 260.00 L 1452.00 260.00 L 1472.00 259.00 L 1512.00 259.00 L 1532.00 258.00 L 1572.00 258.00 L 1592.00 278.00 L 1612.00 257.00 L 1672.00 257.00 L 1692.00 256.00 L 1732.00 256.00 L 1752.00 255.00 L 1792.00 255.00 L 1812.00 275.00 L 1832.00 254.00 L 1852.00 274.00 L 1872.00 254.00 L 1892.00 274.00 L 1912.00 253.00 L 1932.00 253.00 L 1934.00 249.01 L 1933.41 190.00 L 1932.00 190.00 L 1912.00 191.00 L 1892.00 211.00 L 1832.00 211.00 L 1812.00 192.00 L 1792.00 212.00 L 1772.00 192.00 L 1752.00 212.00 L 1732.00 192.00 L 1712.00 212.00 L 1692.00 193.00 L 1672.00 213.00 L 1652.00 213.00 L 1632.00 193.00 L 1612.00 213.00 L 1592.00 214.00 L 1572.00 214.00 L 1552.00 194.00 L 1532.00 214.00 L 1492.00 214.00 L 1472.00 215.00 L 1452.00 195.00 L 1432.00 195.00 L 1412.00 215.00 L 1392.00 215.00 L 1372.00 196.00 L 1352.00 216.00 L 1292.00 216.00 L 1272.00 217.00 L 1252.00 197.00 L 1232.00 197.00 L 1212.00 177.00 L 1172.00 177.00 L 1152.00 178.00 L 1112.00 178.00 L 1092.00 198.00 L 1072.00 178.00 L 1052.00 179.00 L 952.00 179.00 L 932.00 180.00 L 912.00 160.00 Z" />
<path id="00011-41_a_002" fill="none" stroke="black" stroke-width="1" d="M 1372.00 241.00 L 1352.00 261.00 L 1312.00 261.00 L 1292.00 262.00 L 1252.00 262.00 L 1232.00 263.00 L 1172.00 263.00 L 1152.00 264.00 L 1092.00 264.00 L 1072.00 265.00 L 1032.00 265.00 L 1012.00 266.00 L 992.00 246.00 L 972.00 266.00 L 952.00 266.00 L 932.00 267.00 L 892.00 267.00 L 872.00 268.00 L 812.00 268.00 L 792.00 269.00 L 732.00 269.00 L 712.00 270.00 L 672.00 270.00 L 652.00 271.00 L 612.00 271.00 L 592.00 251.00 L 572.00 272.00 L 552.00 272.00 L 532.00 252.00 L 512.00 252.00 L 492.00 273.00 L 452.00 273.00 L 432.00 254.00 L 412.00 274.00 L 392.00 274.00 L 372.00 254.00 L 352.00 275.00 L 332.00 255.00 L 312.00 275.00 L 292.00 255.00 L 272.00 276.00 L 232.00 276.00 L 212.00 277.00 L 152.00 277.00 L 132.00 278.00 L 92.00 278.00 L 72.44 269.20 L 72.62 327.66 L 92.00 317.00 L 112.00 317.00 L 132.00 337.00 L 152.00 317.00 L 172.00 336.00 L 232.00 336.00 L 252.00 316.00 L 272.00 335.00 L 292.00 315.00 L 312.00 315.00 L 332.00 335.00 L 352.00 315.00 L 372.00 334.00 L 432.00 334.00 L 452.00 314.00 L 472.00 313.00 L 492.00 333.00 L 512.00 313.00 L 532.00 333.00 L 552.00 312.00 L 592.00 312.00 L 612.00 332.00 L 632.00 312.00 L 652.00 311.00 L 672.00 331.00 L 692.00 331.00 L 712.00 311.00 L 732.00 311.00 L 752.00 330.00 L 772.00 310.00 L 792.00 330.00 L 812.00 310.00 L 832.00 330.00 L 852.00 309.00 L 872.00 329.00 L 892.00 309.00 L 912.00 309.00 L 932.00 308.00 L 1012.00 308.00 L 1032.00 327.00 L 1072.00 327.00 L 1092.00 307.00 L 1112.00 327.00 L 1132.00 326.00 L 1152.00 306.00 L 1172.00 326.00 L 1192.00 306.00 L 1212.00 306.00 L 1232.00 305.00 L 1252.00 325.00 L 1272.00 305.00 L 1312.00 305.00 L 1332.00 324.00 L 1352.00 304.00 L 1372.00 324.00 L 1392.00 324.00 L 1412.00 303.00 L 1452.00 303.00 L 1472.00 323.00 L 1492.00 323.00 L 1512.00 302.00 L 1532.00 322.00 L 1592.00 322.00 L 1612.00 321.00 L 1632.00 301.00 L 1652.00 301.00 L 1672.00 321.00 L 1692.00 301.00 L 1712.00 320.00 L 1732.00 320.00 L 1752.00 300.00 L 1772.00 300.00 L 1792.00 319.00 L 1812.00 299.00 L 1832.00 319.00 L 1872.00 319.00 L 1892.00 318.00 L 1932.00 318.00 L 1934.63 312.75 L 1934.00 249.01 L 1932.00 253.00 L 1912.00 253.00 L 1892.00 274.00 L 1872.00 254.00 L 1852.00 274.00 L 1832.00 254.00 L 1812.00 275.00 L 1792.00 255.00 L 1752.00 255.00 L 1732.00 256.00 L 1692.00 256.00 L 1672.00 257.00 L 1612.00 257.00 L 1592.00 278.00 L 1572.00 258.00 L 1532.00 258.00 L 1512.00 259.00 L 1472.00 259.00 L 1452.00 260.00 L 1392.00 260.00 L 1372.00 241.00 Z" />
<path id="00011-41_a_003" fill="none" stroke="black" stroke-width="1" d="M 1812.00 299.00 L 1792.00 319.00 L 1772.00 300.00 L 1752.00 300.00 L 1732.00 320.00 L 1712.00 320.00 L 1692.00 301.00 L 1672.00 321.00 L 1652.00 301.00 L 1632.00 301.00 L 1612.00 321.00 L 1592.00 322.00 L 1532.00 322.00 L 1512.00 302.00 L 1492.00 323.00 L 1472.00 323.00 L 1452.00 303.00 L 1412.00 303.00 L 1392.00 324.00 L 1372.00 324.00 L 1352.00 304.00 L 1332.00 324.00 L 1312.00 305.00 L 1272.00 305.00 L 1252.00 325.00 L 1232.00 305.00 L 1212.00 306.00 L 1192.00 306.00 L 1172.00 326.00 L 1152.00 306.00 L 1132.00 326.00 L 1112.00 327.00 L 1092.00 307.00 L 1072.00 327.00 L 1032.00 327.00 L 1012.00 308.00 L 932.00 308.00 L 912.00 309.00 L 892.00 309.00 L 872.00 329.00 L 852.00 309.00 L 832.00 330.00 L 812.00 310.00 L 792.00 330.00 L 772.00 310.00 L 752.00 330.00 L 732.00 311.00 L 712.00 311.00 L 692.00 331.00 L 672.00 331.00 L 652.00 311.00 L 632.00 312.00 L 612.00 332.00 L 592.00 312.00 L 552.00 312.00 L 532.00 333.00 L 512.00 313.00 L 492.00 333.00 L 472.00 313.00 L 452.00 314.00 L 432.00 334.00 L 372.00 334.00 L 352.00 315.00 L 332.00 335.00 L 312.00 315.00 L 292.00 315.00 L 272.00 335.00 L 252.00 316.00 L 232.00 336.00 L 172.00 336.00 L 152.00 317.00 L 132.00 337.00 L 112.00 317.00 L 92.00 317.00 L 72.62 327.66 L 72.76 374.34 L 92.00 383.00 L 112.00 383.00 L 132.00 363.00 L 152.00 362.00 L 192.00 362.00 L 212.00 361.00 L 252.00 361.00 L 272.00 360.00 L 312.00 360.00 L 332.00 379.00 L 352.00 359.00 L 372.00 359.00 L 392.00 358.00 L 432.00 358.00 L 452.00 357.00 L 472.00 357.00 L 492.00 377.00 L 512.00 376.00 L 532.00 356.00 L 552.00 356.00 L 572.00 355.00 L 592.00 375.00 L 612.00 375.00 L 632.00 374.00 L 672.00 374.00 L 692.00 373.00 L 732.00 373.00 L 752.00 372.00 L 792.00 372.00 L 812.00 371.00 L 852.00 371.00 L 872.00 370.00 L 912.00 370.00 L 932.00 369.00 L 952.00 389.00 L 972.00 369.00 L 992.00 368.00 L 1032.00 368.00 L 1052.00 367.00 L 1092.00 367.00 L 1112.00 366.00 L 1152.00 366.00 L 1172.00 365.00 L 1212.00 365.00 L 1232.00 364.00 L 1272.00 364.00 L 1292.00 363.00 L 1332.00 363.00 L 1352.00 362.00 L 1392.00 362.00 L 1412.00 361.00 L 1432.00 381.00 L 1452.00 361.00 L 1472.00 380.00 L 1492.00 360.00 L 1512.00 360.00 L 1532.00 359.00 L 1552.00 379.00 L 1572.00 359.00 L 1592.00 378.00 L 1612.00 358.00 L 1632.00 378.00 L 1652.00 357.00 L 1672.00 377.00 L 1692.00 357.00 L 1712.00 356.00 L 1732.00 356.00 L 1752.00 376.00 L 1772.00 375.00 L 1792.00 355.00 L 1812.00 375.00 L 1832.00 375.00 L 1852.00 374.00 L 1892.00 374.00 L 1912.00 353.00 L 1932.00 353.00 L 1934.96 347.07 L 1934.63 312.75 L 1932.00 318.00 L 1892.00 318.00 L 1872.00 319.00 L 1832.00 319.00 L 1812.00 299.00 Z" />
<path id="00011-41_a_004" fill="none" stroke="black" stroke-width="1" d="M 1934.96 347.07 L 1932.00 353.00 L 1912.00 353.00 L 1892.00 374.00 L 1852.00 374.00 L 1832.00 375.00 L 1812.00 375.00 L 1792.00 355.00 L 1772.00 375.00 L 1752.00 376.00 L 1732.00 356.00 L 1712.00 356.00 L 1692.00 357.00 L 1672.00 377.00 L 1652.00 357.00 L 1632.00 378.00 L 1612.00 358.00 L 1592.00 378.00 L 1572.00 359.00 L 1552.00 379.00 L 1532.00 359.00 L 1512.00 360.00 L 1492.00 360.00 L 1472.00 380.00 L 1452.00 361.00 L 1432.00 381.00 L 1412.00 361.00 L 1392.00 362.00 L 1352.00 362.00 L 1332.00 363.00 L 1292.00 363.00 L 1272.00 364.00 L 1232.00 364.00 L 1212.00 365.00 L 1172.00 365.00 L 1152.00 366.00 L 1112.00 366.00 L 1092.00 367.00 L 1052.00 367.00 L 1032.00 368.00 L 992.00 368.00 L 972.00 369.00 L 952.00 389.00 L 932.00 369.00 L 912.00 370.00 L 872.00 370.00 L 852.00 371.00 L 812.00 371.00 L 792.00 372.00 L 752.00 372.00 L 732.00 373.00 L 692.00 373.00 L 672.00 374.00 L 632.00 374.00 L 612.00 375.00 L 592.00 375.00 L 572.00 355.00 L 552.00 356.00 L 532.00 356.00 L 512.00 376.00 L 492.00 377.00 L 472.00 357.00 L 452.00 357.00 L 432.00 358.00 L 392.00 358.00 L 372.00 359.00 L 352.00 359.00 L 332.00 379.00 L 312.00 360.00 L 272.00 360.00 L 252.00 361.00 L 212.00 361.00 L 192.00 362.00 L 152.00 362.00 L 132.00 363.00 L 112.00 383.00 L 92.00 383.00 L 72.76 374.34 L 72.94 433.43 L 92.00 442.00 L 132.00 442.00 L 152.00 441.00 L 192.00 441.00 L 212.00 440.00 L 232.00 440.00 L 252.00 420.00 L 272.00 439.00 L 292.00 419.00 L 312.00 419.00 L 332.00 438.00 L 372.00 438.00 L 392.00 437.00 L 452.00 437.00 L 472.00 416.00 L 492.00 436.00 L 512.00 436.00 L 532.00 435.00 L 572.00 435.00 L 592.00 434.00 L 612.00 434.00 L 632.00 414.00 L 652.00 413.00 L 672.00 433.00 L 692.00 433.00 L 712.00 432.00 L 732.00 412.00 L 752.00 432.00 L 772.00 412.00 L 792.00 431.00 L 832.00 431.00 L 852.00 430.00 L 892.00 430.00 L 912.00 429.00 L 952.00 429.00 L 972.00 428.00 L 1012.00 428.00 L 1032.00 427.00 L 1072.00 427.00 L 1092.00 407.00 L 1112.00 426.00 L 1152.00 426.00 L 1172.00 425.00 L 1212.00 425.00 L 1232.00 424.00 L 1252.00 404.00 L 1272.00 424.00 L 1292.00 423.00 L 1332.00 423.00 L 1352.00 422.00 L 1412.00 422.00 L 1432.00 421.00 L 1472.00 421.00 L 1492.00 420.00 L 1532.00 420.00 L 1552.00 419.00 L 1572.00 439.00 L 1592.00 419.00 L 1612.00 418.00 L 1652.00 418.00 L 1672.00 417.00 L 1692.00 437.00 L 1712.00 417.00 L 1732.00 417.00 L 1752.00 416.00 L 1792.00 416.00 L 1812.00 435.00 L 1832.00 415.00 L 1852.00 415.00 L 1872.00 414.00 L 1912.00 414.00 L 1932.00 393.00 L 1935.42 393.00 L 1934.96 347.07 Z" />
<path id="00011-41_a_005" fill="none" stroke="black" stroke-width="1" d="M 1932.00 393.00 L 1912.00 414.00 L 1872.00 414.00 L 1852.00 415.00 L 1832.00 415.00 L 1812.00 435.00 L 1792.00 416.00 L 1752.00 416.00 L 1732.00 417.00 L 1712.00 417.00 L 1692.00 437.00 L 1672.00 417.00 L 1652.00 418.00 L 1612.00 418.00 L 1592.00 419.00 L 1572.00 439.00 L 1552.00 419.00 L 1532.00 420.00 L 1492.00 420.00 L 1472.00 421.00 L 1432.00 421.00 L 1412.00 422.00 L 1352.00 422.00 L 1332.00 423.00 L 1292.00 423.00 L 1272.00 424.00 L 1252.00 404.00 L 1232.00 424.00 L 1212.00 425.00 L 1172.00 425.00 L 1152.00 426.00 L 1112.00 426.00 L 1092.00 407.00 L 1072.00 427.00 L 1032.00 427.00 L 1012.00 428.00 L 972.00 428.00 L 952.00 429.00 L 912.00 429.00 L 892.00 430.00 L 852.00 430.00 L 832.00 431.00 L 792.00 431.00 L 772.00 412.00 L 752.00 432.00 L 732.00 412.00 L 712.00 432.00 L 692.00 433.00 L 672.00 433.00 L 652.00 413.00 L 632.00 414.00 L 612.00 434.00 L 592.00 434.00 L 572.00 435.00 L 532.00 435.00 L 512.00 436.00 L 492.00 436.00 L 472.00 416.00 L 452.00 437.00 L 392.00 437.00 L 372.00 438.00 L 332.00 438.00 L 312.00 419.00 L 292.00 419.00 L 272.00 439.00 L 252.00 420.00 L 232.00 440.00 L 212.00 440.00 L 192.00 441.00 L 152.00 441.00 L 132.00 442.00 L 92.00 442.00 L 72.94 433.43 L 73.12 490.50 L 92.00 499.00 L 132.00 499.00 L 152.00 498.00 L 192.00 498.00 L 212.00 497.00 L 232.00 477.00 L 252.00 497.00 L 272.00 497.00 L 292.00 496.00 L 312.00 496.00 L 332.00 476.00 L 352.00 495.00 L 372.00 475.00 L 392.00 495.00 L 412.00 474.00 L 432.00 494.00 L 452.00 494.00 L 472.00 474.00 L 492.00 493.00 L 532.00 493.00 L 552.00 492.00 L 612.00 492.00 L 632.00 471.00 L 652.00 471.00 L 672.00 491.00 L 692.00 490.00 L 712.00 470.00 L 732.00 470.00 L 752.00 489.00 L 772.00 489.00 L 792.00 469.00 L 812.00 489.00 L 832.00 488.00 L 852.00 468.00 L 872.00 488.00 L 892.00 487.00 L 932.00 487.00 L 952.00 486.00 L 1012.00 486.00 L 1032.00 485.00 L 1052.00 485.00 L 1072.00 465.00 L 1092.00 484.00 L 1152.00 484.00 L 1172.00 483.00 L 1212.00 483.00 L 1232.00 482.00 L 1272.00 482.00 L 1292.00 481.00 L 1352.00 481.00 L 1372.00 460.00 L 1392.00 480.00 L 1412.00 480.00 L 1432.00 479.00 L 1492.00 479.00 L 1512.00 478.00 L 1552.00 478.00 L 1572.00 457.00 L 1592.00 477.00 L 1612.00 477.00 L 1632.00 476.00 L 1692.00 476.00 L 1712.00 475.00 L 1752.00 475.00 L 1772.00 494.00 L 1792.00 474.00 L 1812.00 454.00 L 1832.00 473.00 L 1892.00 473.00 L 1912.00 472.00 L 1936.20 472.00 L 1935.42 393.00 Z" />
<path id="00011-41_a_006" fill="none" stroke="black" stroke-width="1" d="M 1812.00 454.00 L 1792.00 474.00 L 1772.00 494.00 L 1752.00 475.00 L 1712.00 475.00 L 1692.00 476.00 L 1632.00 476.00 L 1612.00 477.00 L 1592.00 477.00 L 1572.00 457.00 L 1552.00 478.00 L 1512.00 478.00 L 1492.00 479.00 L 1432.00 479.00 L 1412.00 480.00 L 1392.00 480.00 L 1372.00 460.00 L 1352.00 481.00 L 1292.00 481.00 L 1272.00 482.00 L 1232.00 482.00 L 1212.00 483.00 L 1172.00 483.00 L 1152.00 484.00 L 1092.00 484.00 L 1072.00 465.00 L 1052.00 485.00 L 1032.00 485.00 L 1012.00 486.00 L 952.00 486.00 L 932.00 487.00 L 892.00 487.00 L 872.00 488.00 L 852.00 468.00 L 832.00 488.00 L 812.00 489.00 L 792.00 469.00 L 772.00 489.00 L 752.00 489.00 L 732.00 470.00 L 712.00 470.00 L 692.00 490.00 L 672.00 491.00 L 652.00 471.00 L 632.00 471.00 L 612.00 492.00 L 552.00 492.00 L 532.00 493.00 L 492.00 493.00 L 472.00 474.00 L 452.00 494.00 L 432.00 494.00 L 412.00 474.00 L 392.00 495.00 L 372.00 475.00 L 352.00 495.00 L 332.00 476.00 L 312.00 496.00 L 292.00 496.00 L 272.00 497.00 L 252.00 497.00 L 232.00 477.00 L 212.00 497.00 L 192.00 498.00 L 152.00 498.00 L 132.00 499.00 L 92.00 499.00 L 73.12 490.50 L 73.27 540.30 L 92.00 530.00 L 132.00 530.00 L 152.00 529.00 L 192.00 529.00 L 212.00 548.00 L 232.00 528.00 L 272.00 528.00 L 292.00 527.00 L 332.00 527.00 L 352.00 526.00 L 392.00 526.00 L 412.00 546.00 L 432.00 545.00 L 472.00 545.00 L 492.00 544.00 L 512.00 524.00 L 532.00 544.00 L 552.00 543.00 L 592.00 543.00 L 612.00 563.00 L 632.00 542.00 L 672.00 542.00 L 692.00 541.00 L 752.00 541.00 L 772.00 540.00 L 812.00 540.00 L 832.00 539.00 L 872.00 539.00 L 892.00 538.00 L 952.00 538.00 L 972.00 537.00 L 1012.00 537.00 L 1032.00 556.00 L 1052.00 536.00 L 1092.00 536.00 L 1112.00 535.00 L 1152.00 535.00 L 1172.00 534.00 L 1212.00 534.00 L 1232.00 533.00 L 1292.00 533.00 L 1312.00 532.00 L 1352.00 532.00 L 1372.00 531.00 L 1432.00 531.00 L 1452.00 530.00 L 1492.00 530.00 L 1512.00 529.00 L 1552.00 529.00 L 1572.00 528.00 L 1592.00 548.00 L 1612.00 528.00 L 1632.00 528.00 L 1652.00 527.00 L 1692.00 527.00 L 1712.00 526.00 L 1732.00 546.00 L 1752.00 526.00 L 1772.00 546.00 L 1792.00 525.00 L 1832.00 525.00 L 1852.00 524.00 L 1872.00 544.00 L 1892.00 524.00 L 1912.00 524.00 L 1932.00 523.00 L 1936.70 523.00 L 1936.20 472.00 L 1912.00 472.00 L 1892.00 473.00 L 1832.00 473.00 L 1812.00 454.00 Z" />
<path id="00011-41_a_007" fill="none" stroke="black" stroke-width="1" d="M 1932.00 523.00 L 1912.00 524.00 L 1892.00 524.00 L 1872.00 544.00 L 1852.00 524.00 L 1832.00 525.00 L 1792.00 525.00 L 1772.00 546.00 L 1752.00 526.00 L 1732.00 546.00 L 1712.00 526.00 L 1692.00 527.00 L 1652.00 527.00 L 1632.00 528.00 L 1612.00 528.00 L 1592.00 548.00 L 1572.00 528.00 L 1552.00 529.00 L 1512.00 529.00 L 1492.00 530.00 L 1452.00 530.00 L 1432.00 531.00 L 1372.00 531.00 L 1352.00 532.00 L 1312.00 532.00 L 1292.00 533.00 L 1232.00 533.00 L 1212.00 534.00 L 1172.00 534.00 L 1152.00 535.00 L 1112.00 535.00 L 1092.00 536.00 L 1052.00 536.00 L 1032.00 556.00 L 1012.00 537.00 L 972.00 537.00 L 952.00 538.00 L 892.00 538.00 L 872.00 539.00 L 832.00 539.00 L 812.00 540.00 L 772.00 540.00 L 752.00 541.00 L 692.00 541.00 L 672.00 542.00 L 632.00 542.00 L 612.00 563.00 L 592.00 543.00 L 552.00 543.00 L 532.00 544.00 L 512.00 524.00 L 492.00 544.00 L 472.00 545.00 L 432.00 545.00 L 412.00 546.00 L 392.00 526.00 L 352.00 526.00 L 332.00 527.00 L 292.00 527.00 L 272.00 528.00 L 232.00 528.00 L 212.00 548.00 L 192.00 529.00 L 152.00 529.00 L 132.00 530.00 L 92.00 530.00 L 73.27 540.30 L 73.45 598.20 L 92.00 588.00 L 112.00 608.00 L 132.00 608.00 L 152.00 607.00 L 172.00 587.00 L 192.00 607.00 L 212.00 607.00 L 232.00 606.00 L 292.00 606.00 L 312.00 605.00 L 372.00 605.00 L 392.00 584.00 L 412.00 604.00 L 432.00 604.00 L 452.00 603.00 L 512.00 603.00 L 532.00 602.00 L 572.00 602.00 L 592.00 582.00 L 612.00 601.00 L 672.00 601.00 L 692.00 600.00 L 752.00 600.00 L 772.00 599.00 L 792.00 599.00 L 812.00 579.00 L 832.00 598.00 L 892.00 598.00 L 912.00 597.00 L 952.00 597.00 L 972.00 577.00 L 992.00 576.00 L 1012.00 596.00 L 1032.00 596.00 L 1052.00 616.00 L 1072.00 575.00 L 1092.00 595.00 L 1132.00 595.00 L 1152.00 594.00 L 1192.00 594.00 L 1212.00 593.00 L 1272.00 593.00 L 1292.00 592.00 L 1352.00 592.00 L 1372.00 591.00 L 1392.00 591.00 L 1412.00 571.00 L 1432.00 571.00 L 1452.00 590.00 L 1512.00 590.00 L 1532.00 589.00 L 1552.00 589.00 L 1572.00 569.00 L 1592.00 588.00 L 1612.00 588.00 L 1632.00 568.00 L 1652.00 588.00 L 1672.00 587.00 L 1712.00 587.00 L 1732.00 567.00 L 1752.00 586.00 L 1772.00 566.00 L 1792.00 586.00 L 1812.00 566.00 L 1832.00 565.00 L 1852.00 585.00 L 1872.00 585.00 L 1892.00 584.00 L 1912.00 564.00 L 1932.00 584.00 L 1937.20 573.60 L 1936.70 523.00 Z" />
<path id="00011-41_a_008" fill="none" stroke="black" stroke-width="1" d="M 1912.00 564.00 L 1892.00 584.00 L 1872.00 585.00 L 1852.00 585.00 L 1832.00 565.00 L 1812.00 566.00 L 1792.00 586.00 L 1772.00 566.00 L 1752.00 586.00 L 1732.00 567.00 L 1712.00 587.00 L 1672.00 587.00 L 1652.00 588.00 L 1632.00 568.00 L 1612.00 588.00 L 1592.00 588.00 L 1572.00 569.00 L 1552.00 589.00 L 1532.00 589.00 L 1512.00 590.00 L 1452.00 590.00 L 1432.00 571.00 L 1412.00 571.00 L 1392.00 591.00 L 1372.00 591.00 L 1352.00 592.00 L 1292.00 592.00 L 1272.00 593.00 L 1212.00 593.00 L 1192.00 594.00 L 1152.00 594.00 L 1132.00 595.00 L 1092.00 595.00 L 1072.00 575.00 L 1052.00 616.00 L 1032.00 596.00 L 1012.00 596.00 L 992.00 576.00 L 972.00 577.00 L 952.00 597.00 L 912.00 597.00 L 892.00 598.00 L 832.00 598.00 L 812.00 579.00 L 792.00 599.00 L 772.00 599.00 L 752.00 600.00 L 692.00 600.00 L 672.00 601.00 L 612.00 601.00 L 592.00 582.00 L 572.00 602.00 L 532.00 602.00 L 512.00 603.00 L 452.00 603.00 L 432.00 604.00 L 412.00 604.00 L 392.00 584.00 L 372.00 605.00 L 312.00 605.00 L 292.00 606.00 L 232.00 606.00 L 212.00 607.00 L 192.00 607.00 L 172.00 587.00 L 152.00 607.00 L 132.00 608.00 L 112.00 608.00 L 92.00 588.00 L 73.45 598.20 L 73.63 654.73 L 92.00 663.00 L 112.00 663.00 L 132.00 643.00 L 152.00 663.00 L 172.00 663.00 L 192.00 662.00 L 212.00 642.00 L 232.00 662.00 L 252.00 642.00 L 272.00 662.00 L 292.00 661.00 L 332.00 661.00 L 352.00 641.00 L 372.00 661.00 L 392.00 660.00 L 412.00 660.00 L 432.00 640.00 L 452.00 660.00 L 472.00 640.00 L 492.00 659.00 L 532.00 659.00 L 552.00 639.00 L 572.00 659.00 L 592.00 638.00 L 612.00 658.00 L 632.00 638.00 L 652.00 638.00 L 672.00 658.00 L 692.00 657.00 L 712.00 657.00 L 732.00 637.00 L 752.00 657.00 L 772.00 637.00 L 792.00 656.00 L 812.00 636.00 L 852.00 636.00 L 872.00 656.00 L 892.00 635.00 L 912.00 655.00 L 932.00 635.00 L 952.00 655.00 L 972.00 655.00 L 992.00 634.00 L 1052.00 634.00 L 1072.00 654.00 L 1092.00 653.00 L 1112.00 633.00 L 1132.00 653.00 L 1152.00 633.00 L 1172.00 633.00 L 1192.00 652.00 L 1212.00 652.00 L 1232.00 632.00 L 1272.00 632.00 L 1292.00 652.00 L 1312.00 631.00 L 1332.00 651.00 L 1352.00 631.00 L 1372.00 651.00 L 1392.00 651.00 L 1412.00 650.00 L 1452.00 650.00 L 1472.00 630.00 L 1492.00 650.00 L 1512.00 649.00 L 1532.00 649.00 L 1552.00 629.00 L 1572.00 649.00 L 1592.00 629.00 L 1612.00 648.00 L 1632.00 628.00 L 1672.00 628.00 L 1692.00 648.00 L 1712.00 627.00 L 1772.00 627.00 L 1792.00 647.00 L 1812.00 626.00 L 1852.00 626.00 L 1872.00 646.00 L 1892.00 626.00 L 1912.00 625.00 L 1937.71 625.00 L 1937.20 573.60 L 1932.00 584.00 L 1912.00 564.00 Z" />
<path id="00011-41_a_009" fill="none" stroke="black" stroke-width="1" d="M 1912.00 625.00 L 1892.00 626.00 L 1872.00 646.00 L 1852.00 626.00 L 1812.00 626.00 L 1792.00 647.00 L 1772.00 627.00 L 1712.00 627.00 L 1692.00 648.00 L 1672.00 628.00 L 1632.00 628.00 L 1612.00 648.00 L 1592.00 629.00 L 1572.00 649.00 L 1552.00 629.00 L 1532.00 649.00 L 1512.00 649.00 L 1492.00 650.00 L 1472.00 630.00 L 1452.00 650.00 L 1412.00 650.00 L 1392.00 651.00 L 1372.00 651.00 L 1352.00 631.00 L 1332.00 651.00 L 1312.00 631.00 L 1292.00 652.00 L 1272.00 632.00 L 1232.00 632.00 L 1212.00 652.00 L 1192.00 652.00 L 1172.00 633.00 L 1152.00 633.00 L 1132.00 653.00 L 1112.00 633.00 L 1092.00 653.00 L 1072.00 654.00 L 1052.00 634.00 L 992.00 634.00 L 972.00 655.00 L 952.00 655.00 L 932.00 635.00 L 912.00 655.00 L 892.00 635.00 L 872.00 656.00 L 852.00 636.00 L 812.00 636.00 L 792.00 656.00 L 772.00 637.00 L 752.00 657.00 L 732.00 637.00 L 712.00 657.00 L 692.00 657.00 L 672.00 658.00 L 652.00 638.00 L 632.00 638.00 L 612.00 658.00 L 592.00 638.00 L 572.00 659.00 L 552.00 639.00 L 532.00 659.00 L 492.00 659.00 L 472.00 640.00 L 452.00 660.00 L 432.00 640.00 L 412.00 660.00 L 392.00 660.00 L 372.00 661.00 L 352.00 641.00 L 332.00 661.00 L 292.00 661.00 L 272.00 662.00 L 252.00 642.00 L 232.00 662.00 L 212.00 642.00 L 192.00 662.00 L 172.00 663.00 L 152.00 663.00 L 132.00 643.00 L 112.00 663.00 L 92.00 663.00 L 73.63 654.73 L 73.79 708.81 L 92.00 717.00 L 112.00 697.00 L 132.00 717.00 L 152.00 717.00 L 172.00 716.00 L 252.00 716.00 L 272.00 715.00 L 352.00 715.00 L 372.00 694.00 L 392.00 714.00 L 452.00 714.00 L 472.00 693.00 L 492.00 713.00 L 532.00 713.00 L 552.00 693.00 L 572.00 692.00 L 592.00 712.00 L 612.00 712.00 L 632.00 692.00 L 652.00 692.00 L 672.00 711.00 L 692.00 691.00 L 712.00 711.00 L 732.00 711.00 L 752.00 691.00 L 772.00 710.00 L 832.00 710.00 L 852.00 690.00 L 872.00 709.00 L 892.00 689.00 L 912.00 709.00 L 932.00 709.00 L 952.00 689.00 L 972.00 708.00 L 992.00 688.00 L 1012.00 688.00 L 1032.00 708.00 L 1052.00 708.00 L 1072.00 687.00 L 1092.00 707.00 L 1112.00 687.00 L 1132.00 707.00 L 1152.00 687.00 L 1172.00 706.00 L 1232.00 706.00 L 1252.00 686.00 L 1272.00 685.00 L 1292.00 685.00 L 1312.00 705.00 L 1332.00 705.00 L 1352.00 685.00 L 1372.00 704.00 L 1452.00 704.00 L 1472.00 703.00 L 1532.00 703.00 L 1552.00 683.00 L 1572.00 702.00 L 1592.00 682.00 L 1612.00 702.00 L 1632.00 682.00 L 1652.00 702.00 L 1672.00 701.00 L 1692.00 701.00 L 1712.00 681.00 L 1752.00 681.00 L 1772.00 680.00 L 1852.00 680.00 L 1872.00 679.00 L 1892.00 699.00 L 1912.00 679.00 L 1938.24 679.00 L 1937.71 625.00 Z" />
<path id="00011-41_a_010" fill="none" stroke="black" stroke-width="1" d="M 1872.00 679.00 L 1852.00 680.00 L 1772.00 680.00 L 1752.00 681.00 L 1712.00 681.00 L 1692.00 701.00 L 1672.00 701.00 L 1652.00 702.00 L 1632.00 682.00 L 1612.00 702.00 L 1592.00 682.00 L 1572.00 702.00 L 1552.00 683.00 L 1532.00 703.00 L 1472.00 703.00 L 1452.00 704.00 L 1372.00 704.00 L 1352.00 685.00 L 1332.00 705.00 L 1312.00 705.00 L 1292.00 685.00 L 1272.00 685.00 L 1252.00 686.00 L 1232.00 706.00 L 1172.00 706.00 L 1152.00 687.00 L 1132.00 707.00 L 1112.00 687.00 L 1092.00 707.00 L 1072.00 687.00 L 1052.00 708.00 L 1032.00 708.00 L 1012.00 688.00 L 992.00 688.00 L 972.00 708.00 L 952.00 689.00 L 932.00 709.00 L 912.00 709.00 L 892.00 689.00 L 872.00 709.00 L 852.00 690.00 L 832.00 710.00 L 772.00 710.00 L 752.00 691.00 L 732.00 711.00 L 712.00 711.00 L 692.00 691.00 L 672.00 711.00 L 652.00 692.00 L 632.00 692.00 L 612.00 712.00 L 592.00 712.00 L 572.00 692.00 L 552.00 693.00 L 532.00 713.00 L 492.00 713.00 L 472.00 693.00 L 452.00 714.00 L 392.00 714.00 L 372.00 694.00 L 352.00 715.00 L 272.00 715.00 L 252.00 716.00 L 172.00 716.00 L 152.00 717.00 L 132.00 717.00 L 112.00 697.00 L 92.00 717.00 L 73.79 708.81 L 74.07 796.86 L 92.00 787.00 L 152.00 787.00 L 172.00 786.00 L 232.00 786.00 L 252.00 766.00 L 272.00 785.00 L 352.00 785.00 L 372.00 784.00 L 392.00 784.00 L 412.00 804.00 L 432.00 784.00 L 452.00 803.00 L 472.00 783.00 L 532.00 783.00 L 552.00 782.00 L 592.00 782.00 L 612.00 762.00 L 632.00 782.00 L 652.00 781.00 L 672.00 761.00 L 692.00 781.00 L 712.00 781.00 L 732.00 780.00 L 752.00 780.00 L 772.00 760.00 L 792.00 780.00 L 812.00 780.00 L 832.00 799.00 L 852.00 779.00 L 872.00 779.00 L 892.00 759.00 L 912.00 779.00 L 932.00 798.00 L 952.00 778.00 L 992.00 778.00 L 1012.00 777.00 L 1032.00 777.00 L 1052.00 797.00 L 1072.00 797.00 L 1092.00 777.00 L 1112.00 776.00 L 1132.00 796.00 L 1152.00 776.00 L 1172.00 756.00 L 1192.00 756.00 L 1212.00 755.00 L 1272.00 755.00 L 1292.00 754.00 L 1372.00 754.00 L 1392.00 753.00 L 1472.00 753.00 L 1492.00 752.00 L 1512.00 732.00 L 1532.00 752.00 L 1572.00 752.00 L 1592.00 731.00 L 1612.00 751.00 L 1652.00 751.00 L 1672.00 730.00 L 1692.00 750.00 L 1752.00 750.00 L 1772.00 749.00 L 1792.00 729.00 L 1812.00 749.00 L 1832.00 729.00 L 1852.00 749.00 L 1872.00 728.00 L 1892.00 728.00 L 1912.00 748.00 L 1932.00 748.00 L 1939.05 761.40 L 1938.24 679.00 L 1912.00 679.00 L 1892.00 699.00 L 1872.00 679.00 Z" />
<path id="00011-41_a_011" fill="none" stroke="black" stroke-width="1" d="M 1872.00 728.00 L 1852.00 749.00 L 1832.00 729.00 L 1812.00 749.00 L 1792.00 729.00 L 1772.00 749.00 L 1752.00 750.00 L 1692.00 750.00 L 1672.00 730.00 L 1652.00 751.00 L 1612.00 751.00 L 1592.00 731.00 L 1572.00 752.00 L 1532.00 752.00 L 1512.00 732.00 L 1492.00 752.00 L 1472.00 753.00 L 1392.00 753.00 L 1372.00 754.00 L 1292.00 754.00 L 1272.00 755.00 L 1212.00 755.00 L 1192.00 756.00 L 1172.00 756.00 L 1152.00 776.00 L 1132.00 796.00 L 1112.00 776.00 L 1092.00 777.00 L 1072.00 797.00 L 1052.00 797.00 L 1032.00 777.00 L 1012.00 777.00 L 992.00 778.00 L 952.00 778.00 L 932.00 798.00 L 912.00 779.00 L 892.00 759.00 L 872.00 779.00 L 852.00 779.00 L 832.00 799.00 L 812.00 780.00 L 792.00 780.00 L 772.00 760.00 L 752.00 780.00 L 732.00 780.00 L 712.00 781.00 L 692.00 781.00 L 672.00 761.00 L 652.00 781.00 L 632.00 782.00 L 612.00 762.00 L 592.00 782.00 L 552.00 782.00 L 532.00 783.00 L 472.00 783.00 L 452.00 803.00 L 432.00 784.00 L 412.00 804.00 L 392.00 784.00 L 372.00 784.00 L 352.00 785.00 L 272.00 785.00 L 252.00 766.00 L 232.00 786.00 L 172.00 786.00 L 152.00 787.00 L 92.00 787.00 L 74.07 796.86 L 74.29 869.03 L 92.00 877.00 L 112.00 857.00 L 132.00 857.00 L 152.00 876.00 L 172.00 856.00 L 192.00 876.00 L 212.00 876.00 L 232.00 875.00 L 292.00 875.00 L 312.00 874.00 L 352.00 874.00 L 372.00 873.00 L 432.00 873.00 L 452.00 872.00 L 512.00 872.00 L 532.00 871.00 L 572.00 871.00 L 592.00 870.00 L 652.00 870.00 L 672.00 869.00 L 712.00 869.00 L 732.00 849.00 L 752.00 868.00 L 812.00 868.00 L 832.00 867.00 L 872.00 867.00 L 892.00 866.00 L 932.00 866.00 L 952.00 846.00 L 972.00 865.00 L 1032.00 865.00 L 1052.00 864.00 L 1092.00 864.00 L 1112.00 863.00 L 1172.00 863.00 L 1192.00 862.00 L 1252.00 862.00 L 1272.00 861.00 L 1332.00 861.00 L 1352.00 860.00 L 1392.00 860.00 L 1412.00 859.00 L 1452.00 859.00 L 1472.00 839.00 L 1492.00 858.00 L 1532.00 858.00 L 1552.00 838.00 L 1572.00 857.00 L 1592.00 837.00 L 1612.00 857.00 L 1632.00 856.00 L 1652.00 836.00 L 1692.00 836.00 L 1712.00 835.00 L 1772.00 835.00 L 1792.00 854.00 L 1812.00 854.00 L 1832.00 834.00 L 1852.00 853.00 L 1872.00 853.00 L 1892.00 833.00 L 1912.00 833.00 L 1932.00 832.00 L 1939.75 832.00 L 1939.05 761.40 L 1932.00 748.00 L 1912.00 748.00 L 1892.00 728.00 Z" />
<path id="00011-41_a_012" fill="none" stroke="black" stroke-width="1" d="M 1932.00 832.00 L 1912.00 833.00 L 1892.00 833.00 L 1872.00 853.00 L 1852.00 853.00 L 1832.00 834.00 L 1812.00 854.00 L 1792.00 854.00 L 1772.00 835.00 L 1712.00 835.00 L 1692.00 836.00 L 1652.00 836.00 L 1632.00 856.00 L 1612.00 857.00 L 1592.00 837.00 L 1572.00 857.00 L 1552.00 838.00 L 1532.00 858.00 L 1492.00 858.00 L 1472.00 839.00 L 1452.00 859.00 L 1412.00 859.00 L 1392.00 860.00 L 1352.00 860.00 L 1332.00 861.00 L 1272.00 861.00 L 1252.00 862.00 L 1192.00 862.00 L 1172.00 863.00 L 1112.00 863.00 L 1092.00 864.00 L 1052.00 864.00 L 1032.00 865.00 L 972.00 865.00 L 952.00 846.00 L 932.00 866.00 L 892.00 866.00 L 872.00 867.00 L 832.00 867.00 L 812.00 868.00 L 752.00 868.00 L 732.00 849.00 L 712.00 869.00 L 672.00 869.00 L 652.00 870.00 L 592.00 870.00 L 572.00 871.00 L 532.00 871.00 L 512.00 872.00 L 452.00 872.00 L 432.00 873.00 L 372.00 873.00 L 352.00 874.00 L 312.00 874.00 L 292.00 875.00 L 232.00 875.00 L 212.00 876.00 L 192.00 876.00 L 172.00 856.00 L 152.00 876.00 L 132.00 857.00 L 112.00 857.00 L 92.00 877.00 L 74.29 869.03 L 74.45 921.65 L 92.00 912.00 L 132.00 912.00 L 152.00 931.00 L 172.00 911.00 L 192.00 931.00 L 212.00 930.00 L 252.00 930.00 L 272.00 929.00 L 332.00 929.00 L 352.00 928.00 L 392.00 928.00 L 412.00 927.00 L 452.00 927.00 L 472.00 926.00 L 512.00 926.00 L 532.00 925.00 L 592.00 925.00 L 612.00 924.00 L 652.00 924.00 L 672.00 923.00 L 712.00 923.00 L 732.00 922.00 L 792.00 922.00 L 812.00 921.00 L 852.00 921.00 L 872.00 920.00 L 892.00 920.00 L 912.00 900.00 L 932.00 919.00 L 972.00 919.00 L 992.00 918.00 L 1052.00 918.00 L 1072.00 917.00 L 1112.00 917.00 L 1132.00 916.00 L 1172.00 916.00 L 1192.00 915.00 L 1232.00 915.00 L 1252.00 914.00 L 1312.00 914.00 L 1332.00 913.00 L 1372.00 913.00 L 1392.00 912.00 L 1432.00 912.00 L 1452.00 911.00 L 1512.00 911.00 L 1532.00 910.00 L 1572.00 910.00 L 1592.00 909.00 L 1632.00 909.00 L 1652.00 908.00 L 1692.00 908.00 L 1712.00 907.00 L 1732.00 907.00 L 1752.00 887.00 L 1772.00 907.00 L 1792.00 906.00 L 1812.00 886.00 L 1832.00 886.00 L 1852.00 905.00 L 1872.00 905.00 L 1892.00 885.00 L 1912.00 904.00 L 1932.00 884.00 L 1940.26 884.00 L 1939.75 832.00 Z" />
<path id="00011-41_a_013" fill="none" stroke="black" stroke-width="1" d="M 1932.00 884.00 L 1912.00 904.00 L 1892.00 885.00 L 1872.00 905.00 L 1852.00 905.00 L 1832.00 886.00 L 1812.00 886.00 L 1792.00 906.00 L 1772.00 907.00 L 1752.00 887.00 L 1732.00 907.00 L 1712.00 907.00 L 1692.00 908.00 L 1652.00 908.00 L 1632.00 909.00 L 1592.00 909.00 L 1572.00 910.00 L 1532.00 910.00 L 1512.00 911.00 L 1452.00 911.00 L 1432.00 912.00 L 1392.00 912.00 L 1372.00 913.00 L 1332.00 913.00 L 1312.00 914.00 L 1252.00 914.00 L 1232.00 915.00 L 1192.00 915.00 L 1172.00 916.00 L 1132.00 916.00 L 1112.00 917.00 L 1072.00 917.00 L 1052.00 918.00 L 992.00 918.00 L 972.00 919.00 L 932.00 919.00 L 912.00 900.00 L 892.00 920.00 L 872.00 920.00 L 852.00 921.00 L 812.00 921.00 L 792.00 922.00 L 732.00 922.00 L 712.00 923.00 L 672.00 923.00 L 652.00 924.00 L 612.00 924.00 L 592.00 925.00 L 532.00 925.00 L 512.00 926.00 L 472.00 926.00 L 452.00 927.00 L 412.00 927.00 L 392.00 928.00 L 352.00 928.00 L 332.00 929.00 L 272.00 929.00 L 252.00 930.00 L 212.00 930.00 L 192.00 931.00 L 172.00 911.00 L 152.00 931.00 L 132.00 912.00 L 92.00 912.00 L 74.45 921.65 L 74.61 974.56 L 92.00 965.00 L 112.00 985.00 L 132.00 965.00 L 152.00 984.00 L 172.00 964.00 L 192.00 984.00 L 212.00 984.00 L 232.00 983.00 L 252.00 963.00 L 272.00 983.00 L 292.00 983.00 L 312.00 982.00 L 332.00 982.00 L 352.00 962.00 L 372.00 982.00 L 392.00 981.00 L 452.00 981.00 L 472.00 960.00 L 492.00 980.00 L 532.00 980.00 L 552.00 979.00 L 612.00 979.00 L 632.00 978.00 L 692.00 978.00 L 712.00 977.00 L 772.00 977.00 L 792.00 976.00 L 852.00 976.00 L 872.00 975.00 L 932.00 975.00 L 952.00 974.00 L 1012.00 974.00 L 1032.00 973.00 L 1092.00 973.00 L 1112.00 972.00 L 1152.00 972.00 L 1172.00 952.00 L 1192.00 971.00 L 1212.00 951.00 L 1232.00 971.00 L 1252.00 971.00 L 1272.00 970.00 L 1332.00 970.00 L 1352.00 969.00 L 1412.00 969.00 L 1432.00 948.00 L 1452.00 968.00 L 1472.00 968.00 L 1492.00 948.00 L 1512.00 947.00 L 1532.00 967.00 L 1572.00 967.00 L 1592.00 966.00 L 1612.00 946.00 L 1632.00 966.00 L 1652.00 966.00 L 1672.00 945.00 L 1692.00 965.00 L 1732.00 965.00 L 1752.00 964.00 L 1772.00 944.00 L 1792.00 944.00 L 1812.00 964.00 L 1832.00 963.00 L 1852.00 943.00 L 1872.00 963.00 L 1892.00 943.00 L 1912.00 942.00 L 1940.84 942.00 L 1940.26 884.00 Z" />
<path id="00011-41_a_014" fill="none" stroke="black" stroke-width="1" d="M 1912.00 942.00 L 1892.00 943.00 L 1872.00 963.00 L 1852.00 943.00 L 1832.00 963.00 L 1812.00 964.00 L 1792.00 944.00 L 1772.00 944.00 L 1752.00 964.00 L 1732.00 965.00 L 1692.00 965.00 L 1672.00 945.00 L 1652.00 966.00 L 1632.00 966.00 L 1612.00 946.00 L 1592.00 966.00 L 1572.00 967.00 L 1532.00 967.00 L 1512.00 947.00 L 1492.00 948.00 L 1472.00 968.00 L 1452.00 968.00 L 1432.00 948.00 L 1412.00 969.00 L 1352.00 969.00 L 1332.00 970.00 L 1272.00 970.00 L 1252.00 971.00 L 1232.00 971.00 L 1212.00 951.00 L 1192.00 971.00 L 1172.00 952.00 L 1152.00 972.00 L 1112.00 972.00 L 1092.00 973.00 L 1032.00 973.00 L 1012.00 974.00 L 952.00 974.00 L 932.00 975.00 L 872.00 975.00 L 852.00 976.00 L 792.00 976.00 L 772.00 977.00 L 712.00 977.00 L 692.00 978.00 L 632.00 978.00 L 612.00 979.00 L 552.00 979.00 L 532.00 980.00 L 492.00 980.00 L 472.00 960.00 L 452.00 981.00 L 392.00 981.00 L 372.00 982.00 L 352.00 962.00 L 332.00 982.00 L 312.00 982.00 L 292.00 983.00 L 272.00 983.00 L 252.00 963.00 L 232.00 983.00 L 212.00 984.00 L 192.00 984.00 L 172.00 964.00 L 152.00 984.00 L 132.00 965.00 L 112.00 985.00 L 92.00 965.00 L 74.61 974.56 L 74.77 1026.47 L 92.00 1017.00 L 112.00 1017.00 L 132.00 1037.00 L 152.00 1017.00 L 172.00 1016.00 L 192.00 1036.00 L 232.00 1036.00 L 252.00 1035.00 L 272.00 1035.00 L 292.00 1015.00 L 312.00 1035.00 L 332.00 1034.00 L 352.00 1014.00 L 372.00 1034.00 L 392.00 1034.00 L 412.00 1033.00 L 452.00 1033.00 L 472.00 1013.00 L 492.00 1032.00 L 552.00 1032.00 L 572.00 1031.00 L 592.00 1031.00 L 612.00 1011.00 L 632.00 1031.00 L 652.00 1010.00 L 672.00 1030.00 L 692.00 1010.00 L 712.00 1030.00 L 732.00 1010.00 L 752.00 1029.00 L 812.00 1029.00 L 832.00 1028.00 L 892.00 1028.00 L 912.00 1027.00 L 932.00 1027.00 L 952.00 1007.00 L 972.00 1027.00 L 992.00 1026.00 L 1012.00 1026.00 L 1032.00 1006.00 L 1052.00 1026.00 L 1072.00 1025.00 L 1092.00 1005.00 L 1112.00 1025.00 L 1132.00 1025.00 L 1152.00 1024.00 L 1212.00 1024.00 L 1232.00 1023.00 L 1292.00 1023.00 L 1312.00 1022.00 L 1392.00 1022.00 L 1412.00 1021.00 L 1452.00 1021.00 L 1472.00 1001.00 L 1492.00 1000.00 L 1512.00 1020.00 L 1532.00 1020.00 L 1552.00 1000.00 L 1572.00 999.00 L 1592.00 1019.00 L 1612.00 1019.00 L 1632.00 999.00 L 1652.00 998.00 L 1672.00 1018.00 L 1692.00 998.00 L 1712.00 1018.00 L 1732.00 997.00 L 1792.00 997.00 L 1812.00 996.00 L 1872.00 996.00 L 1892.00 995.00 L 1941.36 995.00 L 1940.84 942.00 Z" />
<path id="00011-41_a_015" fill="none" stroke="black" stroke-width="1" d="M 1892.00 995.00 L 1872.00 996.00 L 1812.00 996.00 L 1792.00 997.00 L 1732.00 997.00 L 1712.00 1018.00 L 1692.00 998.00 L 1672.00 1018.00 L 1652.00 998.00 L 1632.00 999.00 L 1612.00 1019.00 L 1592.00 1019.00 L 1572.00 999.00 L 1552.00 1000.00 L 1532.00 1020.00 L 1512.00 1020.00 L 1492.00 1000.00 L 1472.00 1001.00 L 1452.00 1021.00 L 1412.00 1021.00 L 1392.00 1022.00 L 1312.00 1022.00 L 1292.00 1023.00 L 1232.00 1023.00 L 1212.00 1024.00 L 1152.00 1024.00 L 1132.00 1025.00 L 1112.00 1025.00 L 1092.00 1005.00 L 1072.00 1025.00 L 1052.00 1026.00 L 1032.00 1006.00 L 1012.00 1026.00 L 992.00 1026.00 L 972.00 1027.00 L 952.00 1007.00 L 932.00 1027.00 L 912.00 1027.00 L 892.00 1028.00 L 832.00 1028.00 L 812.00 1029.00 L 752.00 1029.00 L 732.00 1010.00 L 712.00 1030.00 L 692.00 1010.00 L 672.00 1030.00 L 652.00 1010.00 L 632.00 1031.00 L 612.00 1011.00 L 592.00 1031.00 L 572.00 1031.00 L 552.00 1032.00 L 492.00 1032.00 L 472.00 1013.00 L 452.00 1033.00 L 412.00 1033.00 L 392.00 1034.00 L 372.00 1034.00 L 352.00 1014.00 L 332.00 1034.00 L 312.00 1035.00 L 292.00 1015.00 L 272.00 1035.00 L 252.00 1035.00 L 232.00 1036.00 L 192.00 1036.00 L 172.00 1016.00 L 152.00 1017.00 L 132.00 1037.00 L 112.00 1017.00 L 92.00 1017.00 L 74.77 1026.47 L 74.98 1092.36 L 92.00 1083.00 L 112.00 1083.00 L 132.00 1082.00 L 172.00 1082.00 L 192.00 1081.00 L 232.00 1081.00 L 252.00 1080.00 L 292.00 1080.00 L 312.00 1079.00 L 352.00 1079.00 L 372.00 1078.00 L 412.00 1078.00 L 432.00 1077.00 L 472.00 1077.00 L 492.00 1076.00 L 532.00 1076.00 L 552.00 1075.00 L 592.00 1075.00 L 612.00 1074.00 L 652.00 1074.00 L 672.00 1073.00 L 712.00 1073.00 L 732.00 1072.00 L 772.00 1072.00 L 792.00 1071.00 L 832.00 1071.00 L 852.00 1070.00 L 892.00 1070.00 L 912.00 1069.00 L 932.00 1069.00 L 944.37 1081.37 L 959.57 1081.05 L 972.00 1068.00 L 1012.00 1068.00 L 1032.00 1067.00 L 1072.00 1067.00 L 1092.00 1066.00 L 1132.00 1066.00 L 1152.00 1065.00 L 1172.00 1065.00 L 1183.26 1076.26 L 1200.68 1075.88 L 1212.00 1064.00 L 1252.00 1064.00 L 1272.00 1063.00 L 1312.00 1063.00 L 1332.00 1062.00 L 1372.00 1062.00 L 1392.00 1061.00 L 1432.00 1061.00 L 1452.00 1060.00 L 1492.00 1060.00 L 1512.00 1059.00 L 1552.00 1059.00 L 1572.00 1058.00 L 1612.00 1058.00 L 1632.00 1057.00 L 1672.00 1057.00 L 1692.00 1056.00 L 1732.00 1056.00 L 1752.00 1055.00 L 1792.00 1055.00 L 1812.00 1054.00 L 1852.00 1054.00 L 1872.00 1053.00 L 1912.00 1053.00 L 1932.00 1052.00 L 1941.92 1052.00 L 1941.36 995.00 Z" />
</svg>